<svg width="208" height="208" viewBox="0 0 208 208" fill="none" xmlns="http://www.w3.org/2000/svg">
<path d="M104 0C83.4308 0 63.3235 6.09949 46.2207 17.5272C29.118 28.9548 15.7881 45.1974 7.91658 64.2009C0.0450616 83.2044 -2.01449 104.115 1.99838 124.289C6.01124 144.463 15.9163 162.994 30.4609 177.539C45.0056 192.084 63.5366 201.989 83.7107 206.002C103.885 210.015 124.796 207.955 143.799 200.083C162.803 192.212 179.045 178.882 190.473 161.779C201.901 144.677 208 124.569 208 104C207.971 76.4264 197.004 49.9905 177.507 30.4931C158.01 10.9956 131.574 0.0291182 104 0ZM104 192C86.5953 192 69.5814 186.839 55.1099 177.169C40.6383 167.5 29.3592 153.756 22.6986 137.676C16.0381 121.596 14.2954 103.902 17.6909 86.8321C21.0864 69.7617 29.4676 54.0816 41.7747 41.7746C54.0817 29.4676 69.7618 21.0864 86.8321 17.6909C103.902 14.2954 121.596 16.0381 137.676 22.6986C153.756 29.3591 167.5 40.6383 177.169 55.1098C186.839 69.5813 192 86.5952 192 104C191.974 127.331 182.694 149.699 166.196 166.196C149.699 182.694 127.331 191.974 104 192ZM168 104C168 106.122 167.157 108.157 165.657 109.657C164.157 111.157 162.122 112 160 112H104C101.878 112 99.8435 111.157 98.3432 109.657C96.8429 108.157 96 106.122 96 104V48C96 45.8783 96.8429 43.8434 98.3432 42.3431C99.8435 40.8429 101.878 40 104 40C106.122 40 108.157 40.8429 109.657 42.3431C111.157 43.8434 112 45.8783 112 48V96H160C162.122 96 164.157 96.8429 165.657 98.3431C167.157 99.8434 168 101.878 168 104Z" fill="#656565"/>
</svg>
