<svg width="197" height="240" viewBox="0 0 197 240" fill="none" xmlns="http://www.w3.org/2000/svg">
<path d="M98.5 0.177734C124.624 0.177734 149.678 10.5554 168.15 29.0277C186.622 47.5001 197 72.5539 197 98.6777C197 140.3 167.753 185.661 110.017 235.244C106.807 238.002 102.713 239.517 98.4811 239.513C94.2488 239.509 90.1583 237.987 86.9528 235.224L83.134 231.91C27.9538 183.62 0 139.371 0 98.6777C0 72.5539 10.3777 47.5001 28.85 29.0277C47.3223 10.5554 72.3762 0.177734 98.5 0.177734ZM98.5 15.3316C76.3952 15.3316 55.1958 24.1127 39.5654 39.7431C23.9349 55.3735 15.1538 76.573 15.1538 98.6777C15.1538 134.057 40.8952 174.821 93.085 220.484L96.8533 223.747C97.3115 224.141 97.8957 224.358 98.5 224.358C99.1043 224.358 99.6885 224.141 100.147 223.747C154.862 176.75 181.846 134.895 181.846 98.6777C181.846 87.7326 179.69 76.8946 175.502 66.7825C171.313 56.6705 165.174 47.4825 157.435 39.7431C149.695 32.0037 140.507 25.8645 130.395 21.6759C120.283 17.4874 109.445 15.3316 98.5 15.3316ZM98.5 60.7931C108.548 60.7931 118.184 64.7845 125.288 71.8893C132.393 78.994 136.385 88.6301 136.385 98.6777C136.385 108.725 132.393 118.361 125.288 125.466C118.184 132.571 108.548 136.562 98.5 136.562C88.4524 136.562 78.8163 132.571 71.7115 125.466C64.6068 118.361 60.6154 108.725 60.6154 98.6777C60.6154 88.6301 64.6068 78.994 71.7115 71.8893C78.8163 64.7845 88.4524 60.7931 98.5 60.7931ZM98.5 75.947C92.4714 75.947 86.6898 78.3418 82.4269 82.6047C78.1641 86.8675 75.7692 92.6492 75.7692 98.6777C75.7692 104.706 78.1641 110.488 82.4269 114.751C86.6898 119.014 92.4714 121.409 98.5 121.409C104.529 121.409 110.31 119.014 114.573 114.751C118.836 110.488 121.231 104.706 121.231 98.6777C121.231 92.6492 118.836 86.8675 114.573 82.6047C110.31 78.3418 104.529 75.947 98.5 75.947Z" fill="#656565"/>
</svg>
